<svg width="599" height="418" xmlns="http://www.w3.org/2000/svg" xmlns:xlink="http://www.w3.org/1999/xlink" overflow="hidden"><g transform="translate(-289 -107)"><rect x="407.5" y="237.5" width="246" height="116" stroke="#C55A11" stroke-width="1.33333" stroke-miterlimit="8" fill="#FBE5D6" fill-opacity="0.301961"/><rect x="319.5" y="356.5" width="537" height="163" stroke="#172C51" stroke-width="1.33333" stroke-miterlimit="8" fill="#D9E2F2" fill-opacity="0.458824"/><rect x="328" y="277" width="38" height="38" stroke="#5AA6D2" stroke-width="2.33333" stroke-miterlimit="8" fill="none"/><text font-family="Cambria Math,Cambria Math_MSFontService,sans-serif" font-weight="400" font-size="13" transform="translate(317.173 203)">Class Text</text><path d="M453 422.167 493.008 422.167 493.008 423.833 453 423.833ZM488.116 418.96 494.58 423 488.116 427.04C487.726 427.284 487.212 427.165 486.968 426.775 486.724 426.385 486.843 425.871 487.233 425.627L492.566 422.293 492.566 423.707 487.233 420.373C486.843 420.129 486.724 419.615 486.968 419.225 487.212 418.835 487.726 418.716 488.116 418.96Z"/><path d="M364.5 372C364.5 368.41 367.41 365.5 371 365.5L397 365.5C400.59 365.5 403.5 368.41 403.5 372L403.5 477C403.5 480.59 400.59 483.5 397 483.5L371 483.5C367.41 483.5 364.5 480.59 364.5 477Z" stroke="#172C51" stroke-width="1.33333" stroke-miterlimit="8" fill="#F2F2F2" fill-rule="evenodd"/><path d="M371.5 378.833C371.5 376.44 373.44 374.5 375.833 374.5L393.167 374.5C395.56 374.5 397.5 376.44 397.5 378.833L397.5 398.167C397.5 400.56 395.56 402.5 393.167 402.5L375.833 402.5C373.44 402.5 371.5 400.56 371.5 398.167Z" stroke="#172C51" stroke-width="1.33333" stroke-miterlimit="8" fill="#FFF2CC" fill-rule="evenodd"/><path d="M371.5 415.833C371.5 413.44 373.44 411.5 375.833 411.5L393.167 411.5C395.56 411.5 397.5 413.44 397.5 415.833L397.5 434.167C397.5 436.56 395.56 438.5 393.167 438.5L375.833 438.5C373.44 438.5 371.5 436.56 371.5 434.167Z" stroke="#172C51" stroke-width="1.33333" stroke-miterlimit="8" fill="#FFF2CC" fill-rule="evenodd"/><path d="M371.5 451.833C371.5 449.44 373.44 447.5 375.833 447.5L393.167 447.5C395.56 447.5 397.5 449.44 397.5 451.833L397.5 471.167C397.5 473.56 395.56 475.5 393.167 475.5L375.833 475.5C373.44 475.5 371.5 473.56 371.5 471.167Z" stroke="#172C51" stroke-width="1.33333" stroke-miterlimit="8" fill="#FFF2CC" fill-rule="evenodd"/><path d="M496.5 377C496.5 373.41 499.41 370.5 503 370.5L529 370.5C532.59 370.5 535.5 373.41 535.5 377L535.5 482C535.5 485.59 532.59 488.5 529 488.5L503 488.5C499.41 488.5 496.5 485.59 496.5 482Z" stroke="#172C51" stroke-width="1.33333" stroke-miterlimit="8" fill="#F2F2F2" fill-rule="evenodd"/><text font-family="Wingdings,Wingdings_MSFontService,sans-serif" font-weight="700" font-size="53" transform="translate(323.067 175)"></text><path d="M425.5 139.167C425.5 137.142 427.142 135.5 429.167 135.5L443.833 135.5C445.858 135.5 447.5 137.142 447.5 139.167L447.5 207.833C447.5 209.858 445.858 211.5 443.833 211.5L429.167 211.5C427.142 211.5 425.5 209.858 425.5 207.833Z" stroke="#172C51" stroke-width="1.33333" stroke-miterlimit="8" fill="#F2F2F2" fill-rule="evenodd"/><path d="M425.5 269.167C425.5 267.142 427.142 265.5 429.167 265.5L443.833 265.5C445.858 265.5 447.5 267.142 447.5 269.167L447.5 329.833C447.5 331.858 445.858 333.5 443.833 333.5L429.167 333.5C427.142 333.5 425.5 331.858 425.5 329.833Z" stroke="#172C51" stroke-width="1.33333" stroke-miterlimit="8" fill="#F2F2F2" fill-rule="evenodd"/><path d="M447 198 479.126 198" stroke="#000000" stroke-width="1.66667" stroke-miterlimit="8" fill="none" fill-rule="evenodd"/><path d="M448 298.167 469.111 298.167 469.111 299.833 448 299.833ZM464.219 294.96 470.683 299 464.219 303.04C463.829 303.284 463.314 303.165 463.07 302.775 462.827 302.385 462.945 301.871 463.335 301.627L468.669 298.293 468.669 299.707 463.336 296.373C462.945 296.129 462.827 295.615 463.071 295.225 463.314 294.835 463.829 294.716 464.219 294.96Z"/><path d="M511.5 269.333C511.5 267.216 513.216 265.5 515.333 265.5L530.667 265.5C532.784 265.5 534.5 267.216 534.5 269.333L534.5 329.667C534.5 331.784 532.784 333.5 530.667 333.5L515.333 333.5C513.216 333.5 511.5 331.784 511.5 329.667Z" stroke="#172C51" stroke-width="1.33333" stroke-miterlimit="8" fill="#F2F2F2" fill-rule="evenodd"/><path d="M0 0 51.4433 0 51.4433 61.2482 161.386 61.2482" stroke="#000000" stroke-width="1.66667" stroke-miterlimit="8" fill="none" fill-rule="evenodd" transform="matrix(1 0 0 -1 403 423.248)"/><path d="M0.833333-1.61875e-06 0.833435 52.3972-0.833232 52.3972-0.833333 1.61875e-06ZM5.38657 44.8171 0.000105091 54.0511-5.3864 44.8171C-5.6183 44.4196-5.48402 43.9093-5.08647 43.6774-4.68893 43.4455-4.17867 43.5798-3.94677 43.9774L0.719917 51.9773-0.719715 51.9774 3.94694 43.9773C4.17884 43.5798 4.6891 43.4455 5.08664 43.6774 5.48419 43.9093 5.61847 44.4196 5.38657 44.8171Z" transform="matrix(1 0 0 -1 564 361.047)"/><path d="M572 298.167 593.111 298.167 593.11 299.833 572 299.833ZM588.219 294.96 594.683 299 588.219 303.04C587.829 303.284 587.314 303.165 587.07 302.775 586.827 302.385 586.945 301.871 587.336 301.627L592.669 298.293 592.669 299.707 587.336 296.373C586.945 296.129 586.827 295.615 587.07 295.225 587.314 294.835 587.829 294.716 588.219 294.96Z"/><path d="M479.833 197 479.833 289.838 478.167 289.838 478.167 197ZM484.387 282.258 479 291.492 473.614 282.258C473.382 281.861 473.516 281.35 473.914 281.118 474.311 280.886 474.821 281.021 475.053 281.418L479.72 289.418 478.28 289.418 482.947 281.418C483.179 281.021 483.689 280.886 484.087 281.118 484.484 281.35 484.618 281.861 484.387 282.258Z"/><path d="M472.5 300C472.5 295.858 475.858 292.5 480 292.5 484.142 292.5 487.5 295.858 487.5 300 487.5 304.142 484.142 307.5 480 307.5 475.858 307.5 472.5 304.142 472.5 300Z" fill="#FFFFFF" fill-rule="evenodd"/><path d="M480 292.5 480 307.5M472.5 300 487.5 300" stroke="#000000" stroke-width="1.33333" stroke-miterlimit="8" fill="none" fill-rule="evenodd"/><path d="M472.5 300C472.5 295.858 475.858 292.5 480 292.5 484.142 292.5 487.5 295.858 487.5 300 487.5 304.142 484.142 307.5 480 307.5 475.858 307.5 472.5 304.142 472.5 300Z" stroke="#000000" stroke-width="1.33333" stroke-miterlimit="8" fill="none" fill-rule="evenodd"/><path d="M683.5 377C683.5 373.41 686.41 370.5 690 370.5L716 370.5C719.59 370.5 722.5 373.41 722.5 377L722.5 482C722.5 485.59 719.59 488.5 716 488.5L690 488.5C686.41 488.5 683.5 485.59 683.5 482Z" stroke="#172C51" stroke-width="1.33333" stroke-miterlimit="8" fill="#F2F2F2" fill-rule="evenodd"/><path d="M487 298.167 508.111 298.167 508.111 299.833 487 299.833ZM503.219 294.96 509.683 299 503.219 303.04C502.829 303.284 502.314 303.165 502.07 302.775 501.827 302.385 501.945 301.871 502.335 301.627L507.669 298.293 507.669 299.707 502.336 296.373C501.945 296.129 501.827 295.615 502.071 295.225 502.314 294.835 502.829 294.716 503.219 294.96Z"/><path d="M533 298.167 554.111 298.167 554.11 299.833 533 299.833ZM549.219 294.96 555.683 299 549.219 303.04C548.829 303.284 548.314 303.165 548.07 302.775 547.827 302.385 547.945 301.871 548.336 301.627L553.669 298.293 553.669 299.707 548.336 296.373C547.945 296.129 547.827 295.615 548.07 295.225 548.314 294.835 548.829 294.716 549.219 294.96Z"/><path d="M557.5 300C557.5 295.858 560.858 292.5 565 292.5 569.142 292.5 572.5 295.858 572.5 300 572.5 304.142 569.142 307.5 565 307.5 560.858 307.5 557.5 304.142 557.5 300Z" fill="#FFFFFF" fill-rule="evenodd"/><path d="M565 292.5 565 307.5M557.5 300 572.5 300" stroke="#000000" stroke-width="1.33333" stroke-miterlimit="8" fill="none" fill-rule="evenodd"/><path d="M557.5 300C557.5 295.858 560.858 292.5 565 292.5 569.142 292.5 572.5 295.858 572.5 300 572.5 304.142 569.142 307.5 565 307.5 560.858 307.5 557.5 304.142 557.5 300Z" stroke="#000000" stroke-width="1.33333" stroke-miterlimit="8" fill="none" fill-rule="evenodd"/><path d="M607.833 333 607.833 361.67 606.167 361.67 606.167 333ZM611.04 356.778 607 363.242 602.96 356.778C602.716 356.388 602.835 355.874 603.225 355.63 603.615 355.386 604.129 355.504 604.373 355.895L607.707 361.228 606.293 361.228 609.627 355.895C609.871 355.504 610.385 355.386 610.775 355.63 611.165 355.873 611.284 356.388 611.04 356.778Z"/><path d="M596.5 269.333C596.5 267.216 598.216 265.5 600.333 265.5L615.667 265.5C617.784 265.5 619.5 267.216 619.5 269.333L619.5 329.667C619.5 331.784 617.784 333.5 615.667 333.5L600.333 333.5C598.216 333.5 596.5 331.784 596.5 329.667Z" stroke="#172C51" stroke-width="1.33333" stroke-miterlimit="8" fill="#F2F2F2" fill-rule="evenodd"/><path d="M446 156 702.63 156" stroke="#000000" stroke-width="1.66667" stroke-miterlimit="8" fill="none" fill-rule="evenodd"/><path d="M702.833 156 702.833 368.649 701.167 368.649 701.167 156ZM707.387 361.069 702 370.303 696.614 361.069C696.382 360.672 696.516 360.161 696.914 359.929 697.311 359.698 697.821 359.832 698.053 360.229L702.72 368.229 701.28 368.229 705.947 360.229C706.179 359.832 706.689 359.698 707.087 359.929 707.484 360.161 707.618 360.672 707.387 361.069Z"/><path d="M367 298.167 422.126 298.167 422.126 299.833 367 299.833ZM417.235 294.96 423.699 299 417.235 303.04C416.844 303.284 416.33 303.165 416.086 302.775 415.842 302.385 415.961 301.871 416.351 301.627L421.685 298.293 421.685 299.707 416.351 296.373C415.961 296.129 415.842 295.615 416.086 295.225 416.33 294.835 416.844 294.716 417.235 294.96Z"/><path d="M364 155.167 423.299 155.167 423.299 156.833 364 156.833ZM418.407 151.96 424.871 156 418.407 160.04C418.017 160.284 417.503 160.165 417.259 159.775 417.015 159.385 417.133 158.871 417.524 158.627L422.857 155.293 422.857 156.707 417.524 153.373C417.133 153.13 417.015 152.615 417.259 152.225 417.503 151.835 418.017 151.716 418.407 151.96Z"/><path d="M382 197.167 422.008 197.167 422.008 198.833 382 198.833ZM417.116 193.96 423.58 198 417.116 202.04C416.726 202.284 416.212 202.165 415.968 201.775 415.724 201.385 415.843 200.871 416.233 200.627L421.566 197.293 421.566 198.707 416.233 195.373C415.843 195.129 415.724 194.615 415.968 194.225 416.212 193.835 416.726 193.716 417.116 193.96Z"/><path d="M535 422.167 596.929 422.167 596.929 423.833 535 423.833ZM592.038 418.96 598.502 423 592.038 427.04C591.647 427.284 591.133 427.165 590.889 426.775 590.645 426.385 590.764 425.871 591.154 425.627L596.488 422.293 596.488 423.707 591.154 420.373C590.764 420.129 590.646 419.615 590.889 419.225 591.133 418.835 591.647 418.716 592.038 418.96Z"/><path d="M599.5 424C599.5 419.858 602.858 416.5 607 416.5 611.142 416.5 614.5 419.858 614.5 424 614.5 428.142 611.142 431.5 607 431.5 602.858 431.5 599.5 428.142 599.5 424Z" fill="#FFFFFF" fill-rule="evenodd"/><path d="M607 416.5 607 431.5M599.5 424 614.5 424" stroke="#000000" stroke-width="1.33333" stroke-miterlimit="8" fill="none" fill-rule="evenodd"/><path d="M599.5 424C599.5 419.858 602.858 416.5 607 416.5 611.142 416.5 614.5 419.858 614.5 424 614.5 428.142 611.142 431.5 607 431.5 602.858 431.5 599.5 428.142 599.5 424Z" stroke="#000000" stroke-width="1.33333" stroke-miterlimit="8" fill="none" fill-rule="evenodd"/><path d="M615 422.167 681.465 422.167 681.465 423.833 615 423.833ZM676.573 418.96 683.037 423 676.573 427.04C676.183 427.284 675.669 427.165 675.425 426.775 675.181 426.385 675.3 425.871 675.69 425.627L681.023 422.293 681.023 423.707 675.69 420.373C675.3 420.129 675.181 419.615 675.425 419.225 675.669 418.835 676.183 418.716 676.573 418.96Z"/><path d="M772.5 376.834C772.5 373.336 775.336 370.5 778.834 370.5L804.167 370.5C807.664 370.5 810.5 373.336 810.5 376.834L810.5 482.167C810.5 485.664 807.664 488.5 804.167 488.5L778.834 488.5C775.336 488.5 772.5 485.664 772.5 482.167Z" stroke="#172C51" stroke-width="1.33333" stroke-miterlimit="8" fill="#F2F2F2" fill-rule="evenodd"/><path d="M778.5 383.833C778.5 381.44 780.44 379.5 782.833 379.5L800.167 379.5C802.56 379.5 804.5 381.44 804.5 383.833L804.5 402.167C804.5 404.56 802.56 406.5 800.167 406.5L782.833 406.5C780.44 406.5 778.5 404.56 778.5 402.167Z" stroke="#172C51" stroke-width="1.33333" stroke-miterlimit="8" fill="#E1EFD8" fill-rule="evenodd"/><path d="M778.5 419.833C778.5 417.44 780.44 415.5 782.833 415.5L800.167 415.5C802.56 415.5 804.5 417.44 804.5 419.833L804.5 439.167C804.5 441.56 802.56 443.5 800.167 443.5L782.833 443.5C780.44 443.5 778.5 441.56 778.5 439.167Z" stroke="#172C51" stroke-width="1.33333" stroke-miterlimit="8" fill="#E1EFD8" fill-rule="evenodd"/><path d="M778.5 456.833C778.5 454.44 780.44 452.5 782.833 452.5L800.167 452.5C802.56 452.5 804.5 454.44 804.5 456.833L804.5 475.167C804.5 477.56 802.56 479.5 800.167 479.5L782.833 479.5C780.44 479.5 778.5 477.56 778.5 475.167Z" stroke="#172C51" stroke-width="1.33333" stroke-miterlimit="8" fill="#E1EFD8" fill-rule="evenodd"/><path d="M721 422.167 737.575 422.167 737.575 423.833 721 423.833ZM732.683 418.96 739.147 423 732.683 427.04C732.293 427.284 731.779 427.165 731.535 426.775 731.291 426.385 731.41 425.871 731.8 425.627L737.133 422.293 737.133 423.707 731.8 420.373C731.41 420.129 731.291 419.615 731.535 419.225 731.779 418.835 732.293 418.716 732.683 418.96Z"/><path d="M811 422.167 837.78 422.167 837.78 423.833 811 423.833ZM832.888 418.96 839.352 423 832.888 427.04C832.498 427.284 831.984 427.165 831.74 426.775 831.496 426.385 831.615 425.871 832.005 425.627L837.338 422.293 837.338 423.707 832.005 420.373C831.615 420.129 831.496 419.615 831.74 419.225 831.984 418.835 832.498 418.716 832.888 418.96Z"/><path d="M336 422.167 362.78 422.167 362.78 423.833 336 423.833ZM357.888 418.96 364.352 423 357.888 427.04C357.498 427.284 356.984 427.165 356.74 426.775 356.496 426.385 356.615 425.871 357.005 425.627L362.338 422.293 362.338 423.707 357.005 420.373C356.615 420.129 356.496 419.615 356.74 419.225 356.984 418.835 357.498 418.716 357.888 418.96Z"/><text font-family="Cambria Math,Cambria Math_MSFontService,sans-serif" font-weight="400" font-size="15" transform="translate(558.961 511)">Unet BackBone</text><text font-family="Cambria Math,Cambria Math_MSFontService,sans-serif" font-weight="400" font-size="11" transform="translate(348.078 501)">Visual Features</text><text font-family="Cambria Math,Cambria Math_MSFontService,sans-serif" font-weight="400" font-size="11" transform="translate(484.372 501)">Self</text><text font-family="Cambria Math,Cambria Math_MSFontService,sans-serif" font-weight="400" font-size="11" transform="translate(500.872 501)">-</text><text font-family="Cambria Math,Cambria Math_MSFontService,sans-serif" font-weight="400" font-size="11" transform="translate(504.372 501)">Atention</text><text font-family="Cambria Math,Cambria Math_MSFontService,sans-serif" font-weight="400" font-size="11" transform="translate(668.434 500)">Cross</text><text font-family="Cambria Math,Cambria Math_MSFontService,sans-serif" font-weight="400" font-size="11" transform="translate(693.767 500)">-</text><text font-family="Cambria Math,Cambria Math_MSFontService,sans-serif" font-weight="400" font-size="11" transform="translate(697.267 500)">Atention</text><text font-family="Cambria Math,Cambria Math_MSFontService,sans-serif" font-weight="400" font-size="15" transform="translate(502.578 251)">BTFusion</text><text font-family="Cambria Math,Cambria Math_MSFontService,sans-serif" font-weight="400" font-size="11" transform="translate(409.906 346)">Fourier Embedder</text><text font-family="Cambria Math,Cambria Math_MSFontService,sans-serif" font-weight="400" font-size="11" transform="translate(512.778 346)">MLP</text><text font-family="Cambria Math,Cambria Math_MSFontService,sans-serif" font-weight="400" font-size="11" transform="translate(581.846 346)">Self</text><text font-family="Cambria Math,Cambria Math_MSFontService,sans-serif" font-weight="400" font-size="11" transform="translate(600.679 346)">-</text><text font-family="Cambria Math,Cambria Math_MSFontService,sans-serif" font-weight="400" font-size="11" transform="translate(608.846 346)">Atention</text><text font-family="Cambria Math,Cambria Math_MSFontService,sans-serif" font-weight="400" font-size="11" transform="translate(408.601 223)">Text Encoder</text><text font-family="Cambria Math,Cambria Math_MSFontService,sans-serif" font-weight="400" font-size="11" transform="translate(742.425 171)">Global Image Description</text><text font-family="Wingdings,Wingdings_MSFontService,sans-serif" font-weight="700" font-size="27" transform="translate(717.596 177)"></text><path d="M601.5 369.5C601.5 366.186 603.963 363.5 607 363.5 610.038 363.5 612.5 366.186 612.5 369.5 612.5 372.814 610.038 375.5 607 375.5 603.963 375.5 601.5 372.814 601.5 369.5Z" fill="#FFFFFF" fill-rule="evenodd"/><path d="M607 363.5 607 375.5M601.5 369.5 612.5 369.5" stroke="#000000" stroke-width="1.33333" stroke-miterlimit="8" fill="none" fill-rule="evenodd"/><path d="M601.5 369.5C601.5 366.186 603.963 363.5 607 363.5 610.038 363.5 612.5 366.186 612.5 369.5 612.5 372.814 610.038 375.5 607 375.5 603.963 375.5 601.5 372.814 601.5 369.5Z" stroke="#000000" stroke-width="1.33333" stroke-miterlimit="8" fill="none" fill-rule="evenodd"/><path d="M607.833 375 607.833 413.118 606.167 413.118 606.167 375ZM611.04 408.227 607 414.691 602.96 408.227C602.716 407.836 602.835 407.322 603.225 407.078 603.615 406.834 604.13 406.953 604.373 407.343L607.707 412.677 606.293 412.677 609.627 407.343C609.871 406.953 610.385 406.834 610.775 407.078 611.165 407.322 611.284 407.836 611.04 408.227Z"/><path d="M739.5 423.5C739.5 420.186 741.963 417.5 745 417.5 748.038 417.5 750.5 420.186 750.5 423.5 750.5 426.814 748.038 429.5 745 429.5 741.963 429.5 739.5 426.814 739.5 423.5Z" fill="#FFFFFF" fill-rule="evenodd"/><path d="M745 417.5 745 429.5M739.5 423.5 750.5 423.5" stroke="#000000" stroke-width="1.33333" stroke-miterlimit="8" fill="none" fill-rule="evenodd"/><path d="M739.5 423.5C739.5 420.186 741.963 417.5 745 417.5 748.038 417.5 750.5 420.186 750.5 423.5 750.5 426.814 748.038 429.5 745 429.5 741.963 429.5 739.5 426.814 739.5 423.5Z" stroke="#000000" stroke-width="1.33333" stroke-miterlimit="8" fill="none" fill-rule="evenodd"/><path d="M750 422.167 769.977 422.167 769.977 423.833 750 423.833ZM765.085 418.96 771.549 423 765.085 427.04C764.695 427.284 764.181 427.165 763.937 426.775 763.693 426.385 763.811 425.871 764.202 425.627L769.535 422.293 769.535 423.707 764.202 420.373C763.811 420.129 763.693 419.615 763.937 419.225 764.181 418.835 764.695 418.716 765.085 418.96Z"/><rect x="719" y="195" width="17" height="17" stroke="#5AA6D2" stroke-width="2.33333" stroke-miterlimit="8" fill="none"/><text font-family="Cambria Math,Cambria Math_MSFontService,sans-serif" font-weight="400" font-size="11" transform="translate(743.373 207)">Bounding Box</text><path d="M720.5 242.5C720.5 238.082 723.858 234.5 728 234.5 732.142 234.5 735.5 238.082 735.5 242.5 735.5 246.918 732.142 250.5 728 250.5 723.858 250.5 720.5 246.918 720.5 242.5Z" fill="#FFFFFF" fill-rule="evenodd"/><path d="M728 234.5 728 250.5M720.5 242.5 735.5 242.5" stroke="#000000" stroke-width="1.33333" stroke-miterlimit="8" fill="none" fill-rule="evenodd"/><path d="M720.5 242.5C720.5 238.082 723.858 234.5 728 234.5 732.142 234.5 735.5 238.082 735.5 242.5 735.5 246.918 732.142 250.5 728 250.5 723.858 250.5 720.5 246.918 720.5 242.5Z" stroke="#000000" stroke-width="1.33333" stroke-miterlimit="8" fill="none" fill-rule="evenodd"/><text font-family="Cambria Math,Cambria Math_MSFontService,sans-serif" font-weight="400" font-size="11" transform="translate(744.125 246)">Concat</text><path d="M633.406 266C632.306 263.226 632.891 261.634 633.735 260.138 634.655 258.504 634.898 256.878 634.898 256.878 634.898 256.878 635.619 258.026 635.333 259.818 636.611 258.079 636.854 255.322 636.662 254.261 639.561 256.721 640.796 262.052 639.125 266 648 259.896 641.332 250.766 640.175 249.73 640.56 250.766 640.631 252.505 639.853 253.348 638.532 247.251 635.262 246 635.262 246 635.648 249.148 633.856 252.583 632.135 255.157 632.071 253.904 632.006 253.035 631.463 251.835 631.342 254.113 629.908 255.975 629.522 258.252 629 261.347 629.914 263.608 633.406 266Z" fill="#E03F20" fill-rule="evenodd"/><path d="M723.942 288C722.958 285.503 723.481 284.071 724.236 282.725 725.06 281.254 725.277 279.79 725.277 279.79 725.277 279.79 725.922 280.824 725.667 282.436 726.81 280.871 727.027 278.39 726.856 277.435 729.449 279.649 730.554 284.447 729.059 288 737 282.506 731.034 274.289 729.999 273.357 730.343 274.289 730.407 275.854 729.71 276.613 728.529 271.126 725.602 270 725.602 270 725.948 272.833 724.345 275.924 722.805 278.241 722.748 277.113 722.689 276.332 722.204 275.251 722.095 277.302 720.812 278.977 720.467 281.027 720 283.812 720.818 285.848 723.942 288Z" fill="#E03F20" fill-rule="evenodd"/><text font-family="Cambria Math,Cambria Math_MSFontService,sans-serif" font-weight="400" font-size="11" transform="translate(744.611 283)">Trainable</text><path d="M735.974 319.779 735.659 318.782 733.401 319.29 731.496 318.357 733.87 317.475 733.87 316.525 731.496 315.643 733.401 314.71 735.659 315.218 735.974 314.221 734.901 313.979 736 313.443 735.386 312.546 734.287 313.083 734.573 312.179 733.392 311.913 732.792 313.817 730.887 314.746 731.168 312.579 730.197 312.104 728.109 313.392 728.109 311.535 729.762 310.141 728.898 309.41 728.109 310.073 728.109 309 726.886 309 726.886 310.073 726.102 309.41 725.238 310.141 726.886 311.535 726.886 313.392 724.799 312.104 723.832 312.579 724.109 314.743 722.208 313.817 721.608 311.913 720.423 312.179 720.708 313.083 719.614 312.546 719 313.439 720.099 313.979 719.026 314.221 719.341 315.218 721.595 314.71 723.503 315.643 721.13 316.525 721.13 317.475 723.503 318.357 721.595 319.29 719.341 318.782 719.026 319.779 720.099 320.021 719 320.561 719.614 321.454 720.708 320.917 720.423 321.821 721.608 322.091 722.208 320.183 724.109 319.257 723.832 321.425 724.799 321.896 726.886 320.608 726.886 322.465 725.238 323.859 726.102 324.59 726.886 323.927 726.886 325 728.109 325 728.109 323.927 728.898 324.59 729.762 323.859 728.109 322.465 728.109 320.608 730.197 321.896 731.168 321.425 730.887 319.257 732.792 320.183 733.392 322.091 734.573 321.821 734.287 320.917 735.386 321.454 736 320.561 734.901 320.021 735.974 319.779ZM732.102 317 730.184 317.716 728.723 317 730.184 316.287 732.102 317ZM729.801 313.63 729.575 315.387 728.109 316.104 728.109 314.678 729.801 313.63ZM725.199 313.63 726.886 314.678 726.886 316.104 725.425 315.387 725.199 313.63ZM722.894 317 724.816 316.287 726.277 317 724.816 317.716 722.894 317ZM725.199 320.37 725.425 318.613 726.886 317.896 726.886 319.322 725.199 320.37ZM729.801 320.37 728.109 319.322 728.109 317.896 729.575 318.613 729.801 320.37Z" fill="#0C6FBB" fill-rule="evenodd"/><text font-family="Cambria Math,Cambria Math_MSFontService,sans-serif" font-weight="400" font-size="11" transform="translate(745.707 320)">Frozen</text><path d="M841.976 505.779 841.679 504.782 839.554 505.29 837.761 504.357 839.995 503.475 839.995 502.525 837.761 501.643 839.554 500.71 841.679 501.218 841.976 500.221 840.965 499.979 842 499.443 841.423 498.546 840.388 499.083 840.657 498.179 839.546 497.913 838.98 499.817 837.188 500.746 837.453 498.579 836.538 498.104 834.573 499.392 834.573 497.535 836.129 496.141 835.315 495.41 834.573 496.073 834.573 495 833.423 495 833.423 496.073 832.685 495.41 831.871 496.141 833.423 497.535 833.423 499.392 831.458 498.104 830.547 498.579 830.808 500.743 829.02 499.817 828.454 497.913 827.339 498.179 827.608 499.083 826.577 498.546 826 499.439 827.035 499.979 826.024 500.221 826.321 501.218 828.442 500.71 830.239 501.643 828.005 502.525 828.005 503.475 830.239 504.357 828.442 505.29 826.321 504.782 826.024 505.779 827.035 506.021 826 506.561 826.577 507.454 827.608 506.917 827.339 507.821 828.454 508.091 829.02 506.183 830.808 505.257 830.547 507.425 831.458 507.896 833.423 506.608 833.423 508.465 831.871 509.859 832.685 510.59 833.423 509.927 833.423 511 834.573 511 834.573 509.927 835.315 510.59 836.129 509.859 834.573 508.465 834.573 506.608 836.538 507.896 837.453 507.425 837.188 505.257 838.98 506.183 839.546 508.091 840.657 507.821 840.388 506.917 841.423 507.454 842 506.561 840.965 506.021 841.976 505.779ZM838.331 503 836.526 503.716 835.151 503 836.526 502.287 838.331 503ZM836.165 499.63 835.953 501.387 834.573 502.104 834.573 500.678 836.165 499.63ZM831.835 499.63 833.423 500.678 833.423 502.104 832.047 501.387 831.835 499.63ZM829.665 503 831.474 502.287 832.849 503 831.474 503.716 829.665 503ZM831.835 506.37 832.047 504.613 833.423 503.896 833.423 505.322 831.835 506.37ZM836.165 506.37 834.573 505.322 834.573 503.896 835.953 504.613 836.165 506.37Z" fill="#0C6FBB" fill-rule="evenodd"/></g></svg>