<svg width="848" height="429" xmlns="http://www.w3.org/2000/svg" xmlns:xlink="http://www.w3.org/1999/xlink" overflow="hidden"><g transform="translate(-163 -141)"><rect x="195" y="230" width="151" height="151" fill="#D9E2F2"/><rect x="393" y="230" width="151" height="151" fill="#FBE5D6"/><text font-family="Cambria Math,Cambria Math_MSFontService,sans-serif" font-weight="400" font-size="24" transform="translate(432.594 286)">Weight</text><text font-family="Cambria Math,Cambria Math_MSFontService,sans-serif" font-weight="400" font-size="24" transform="translate(432.994 315)">update</text><text font-family="Cambria Math,Cambria Math_MSFontService,sans-serif" font-weight="400" font-size="24" transform="translate(447.554 344)">△</text><text font-family="Cambria Math,Cambria Math_MSFontService,sans-serif" font-weight="400" font-size="24" transform="translate(467.554 344)">W</text><text font-family="Cambria Math,Cambria Math_MSFontService,sans-serif" font-weight="400" font-size="24" transform="translate(215.638 286)">Pretrained</text><text font-family="Cambria Math,Cambria Math_MSFontService,sans-serif" font-weight="400" font-size="24" transform="translate(230.325 315)">weights</text><text font-family="Cambria Math,Cambria Math_MSFontService,sans-serif" font-weight="400" font-size="24" transform="translate(259.251 344)">W</text><rect x="299" y="459" width="151" height="28" fill="#7F6000"/><rect x="289" y="456" width="171" height="33" fill="#E1EFD8"/><text font-family="Cambria Math,Cambria Math_MSFontService,sans-serif" font-weight="400" font-size="19" transform="translate(348.418 479)">Inputs</text><path d="M300.5 503.839 300.5 492.5" stroke="#000000" stroke-width="1.33333" stroke-miterlimit="8" fill="none" fill-rule="evenodd"/><path d="M450.5 503.839 450.5 492.5" stroke="#000000" stroke-width="1.33333" stroke-miterlimit="8" fill="none" fill-rule="evenodd"/><path d="M301.753 496.833 448.538 496.833 448.538 498.167 301.753 498.167ZM306.733 501.399 300.496 497.5 306.733 493.601C307.046 493.406 307.457 493.501 307.652 493.813 307.847 494.126 307.752 494.537 307.44 494.732L302.107 498.065 302.107 496.935 307.44 500.268C307.752 500.463 307.847 500.875 307.652 501.187 307.457 501.499 307.046 501.594 306.733 501.399ZM443.558 493.601 449.796 497.5 443.558 501.399C443.246 501.594 442.835 501.499 442.639 501.187 442.444 500.874 442.539 500.463 442.851 500.268L448.185 496.935 448.185 498.065 442.851 494.732C442.539 494.537 442.444 494.126 442.639 493.813 442.835 493.501 443.246 493.406 443.558 493.601Z"/><text font-family="Cambria Math,Cambria Math_MSFontService,sans-serif" font-weight="400" font-size="24" transform="translate(365.645 518)">d</text><path d="M345.758 455.882 300.606 409.902 301.891 408.641 347.042 454.621ZM302.652 418.47 299.997 407.997 310.42 410.842C310.9 410.972 311.183 411.467 311.052 411.947 310.921 412.426 310.426 412.709 309.947 412.578L301.012 410.14 302.121 409.05 304.396 418.028C304.519 418.51 304.227 418.999 303.745 419.122 303.263 419.244 302.774 418.952 302.652 418.47Z"/><path d="M0.641507-0.631243 45.8797 45.3425 44.5967 46.605-0.641507 0.631243ZM43.8258 36.7765 46.4911 47.2471 36.0649 44.4132C35.5852 44.2829 35.3021 43.7883 35.4324 43.3087 35.5628 42.829 36.0573 42.5459 36.537 42.6762L45.4744 45.1054 44.3661 46.1959 42.0814 37.2205C41.9588 36.7388 42.2499 36.2489 42.7316 36.1263 43.2133 36.0037 43.7032 36.2948 43.8258 36.7765Z" fill="#FF0000" transform="matrix(1 0 0 -1 397 455.244)"/><path d="M0.641507-0.631243 45.8797 45.3425 44.5967 46.605-0.641507 0.631243ZM43.8258 36.7765 46.4911 47.2471 36.0649 44.4132C35.5852 44.2829 35.3021 43.7883 35.4324 43.3087 35.5628 42.829 36.0573 42.5459 36.537 42.6762L45.4744 45.1054 44.3661 46.1959 42.0814 37.2205C41.9588 36.7388 42.2499 36.2489 42.7316 36.1263 43.2133 36.0037 43.7032 36.2948 43.8258 36.7765Z" transform="matrix(1 0 0 -1 300 224.244)"/><path d="M447.758 224.882 402.606 178.902 403.891 177.641 449.042 223.621ZM404.652 187.47 401.997 176.997 412.42 179.842C412.9 179.972 413.183 180.467 413.052 180.947 412.921 181.426 412.426 181.709 411.947 181.578L403.012 179.14 404.121 178.05 406.396 187.028C406.519 187.51 406.227 187.999 405.745 188.122 405.263 188.244 404.774 187.952 404.652 187.47Z" fill="#FF0000"/><text font-family="Cambria Math,Cambria Math_MSFontService,sans-serif" font-weight="700" font-size="32" transform="translate(362.826 211)">+</text><rect x="299" y="145" width="151" height="28" fill="#7F6000"/><rect x="289" y="142" width="171" height="32" fill="#E1EFD8"/><text font-family="Cambria Math,Cambria Math_MSFontService,sans-serif" font-weight="400" font-size="19" transform="translate(342.252 165)">Outputs</text><text font-family="Cambria Math,Cambria Math_MSFontService,sans-serif" font-weight="400" font-size="24" transform="translate(198.055 549)">Weight update in regular finetuning</text><path d="M196.5 393.839 196.5 382.5" stroke="#000000" stroke-width="1.33333" stroke-miterlimit="8" fill="none" fill-rule="evenodd"/><path d="M346.5 393.839 346.5 382.5" stroke="#000000" stroke-width="1.33333" stroke-miterlimit="8" fill="none" fill-rule="evenodd"/><path d="M197.753 386.833 344.538 386.833 344.538 388.167 197.753 388.167ZM202.733 391.399 196.496 387.5 202.733 383.601C203.046 383.406 203.457 383.501 203.652 383.813 203.847 384.126 203.752 384.537 203.44 384.732L198.107 388.065 198.107 386.935 203.44 390.268C203.752 390.463 203.847 390.875 203.652 391.187 203.457 391.499 203.046 391.594 202.733 391.399ZM339.558 383.601 345.796 387.5 339.558 391.399C339.246 391.594 338.835 391.499 338.639 391.187 338.444 390.874 338.539 390.463 338.851 390.268L344.185 386.935 344.185 388.065 338.851 384.732C338.539 384.537 338.444 384.126 338.639 383.813 338.835 383.501 339.246 383.406 339.558 383.601Z"/><text font-family="Cambria Math,Cambria Math_MSFontService,sans-serif" font-weight="400" font-size="24" transform="translate(261.645 408)">d</text><path d="M393.5 394.839 393.5 383.5" stroke="#000000" stroke-width="1.33333" stroke-miterlimit="8" fill="none" fill-rule="evenodd"/><path d="M543.5 394.839 543.5 383.5" stroke="#000000" stroke-width="1.33333" stroke-miterlimit="8" fill="none" fill-rule="evenodd"/><path d="M395.753 387.833 542.538 387.833 542.538 389.167 395.753 389.167ZM400.733 392.399 394.496 388.5 400.733 384.601C401.046 384.406 401.457 384.501 401.652 384.813 401.847 385.126 401.752 385.537 401.44 385.732L396.107 389.065 396.107 387.935 401.44 391.268C401.752 391.463 401.847 391.875 401.652 392.187 401.457 392.499 401.046 392.594 400.733 392.399ZM537.558 384.601 543.796 388.5 537.558 392.399C537.246 392.594 536.835 392.499 536.639 392.187 536.444 391.874 536.539 391.463 536.851 391.268L542.185 387.935 542.185 389.065 536.851 385.732C536.539 385.537 536.444 385.126 536.639 384.813 536.835 384.501 537.246 384.406 537.558 384.601Z"/><text font-family="Cambria Math,Cambria Math_MSFontService,sans-serif" font-weight="400" font-size="24" transform="translate(459.084 409)">d</text><rect x="609" y="230" width="152" height="151" fill="#D9E2F2"/><text font-family="Cambria Math,Cambria Math_MSFontService,sans-serif" font-weight="400" font-size="24" transform="translate(630.342 286)">Pretrained</text><text font-family="Cambria Math,Cambria Math_MSFontService,sans-serif" font-weight="400" font-size="24" transform="translate(645.029 315)">weights</text><text font-family="Cambria Math,Cambria Math_MSFontService,sans-serif" font-weight="400" font-size="24" transform="translate(673.955 344)">W</text><rect x="713" y="459" width="151" height="28" fill="#7F6000"/><rect x="703" y="456" width="171" height="33" fill="#E1EFD8"/><text font-family="Cambria Math,Cambria Math_MSFontService,sans-serif" font-weight="400" font-size="19" transform="translate(763.122 479)">Inputs</text><path d="M714.5 503.839 714.5 492.5" stroke="#000000" stroke-width="1.33333" stroke-miterlimit="8" fill="none" fill-rule="evenodd"/><path d="M864.5 503.839 864.5 492.5" stroke="#000000" stroke-width="1.33333" stroke-miterlimit="8" fill="none" fill-rule="evenodd"/><path d="M716.753 496.833 863.538 496.833 863.538 498.167 716.753 498.167ZM721.733 501.399 715.496 497.5 721.733 493.601C722.046 493.406 722.457 493.501 722.652 493.813 722.847 494.126 722.752 494.537 722.44 494.732L717.107 498.065 717.107 496.935 722.44 500.268C722.752 500.463 722.847 500.875 722.652 501.187 722.457 501.499 722.046 501.594 721.733 501.399ZM858.558 493.601 864.796 497.5 858.558 501.399C858.246 501.594 857.835 501.499 857.639 501.187 857.444 500.874 857.539 500.463 857.851 500.268L863.185 496.935 863.185 498.065 857.851 494.732C857.539 494.537 857.444 494.126 857.639 493.813 857.835 493.501 858.246 493.406 858.558 493.601Z"/><text font-family="Cambria Math,Cambria Math_MSFontService,sans-serif" font-weight="400" font-size="24" transform="translate(780.348 518)">d</text><path d="M760.758 455.882 715.606 409.902 716.891 408.641 762.042 454.621ZM717.652 418.47 714.997 407.997 725.42 410.842C725.9 410.972 726.183 411.467 726.052 411.947 725.921 412.426 725.426 412.709 724.947 412.578L716.012 410.14 717.121 409.05 719.396 418.028C719.519 418.51 719.227 418.999 718.745 419.122 718.263 419.244 717.774 418.952 717.652 418.47Z"/><path d="M0.641507-0.631243 45.8797 45.3425 44.5967 46.605-0.641507 0.631243ZM43.8258 36.7765 46.4911 47.2471 36.0649 44.4132C35.5852 44.2829 35.3021 43.7883 35.4324 43.3087 35.5628 42.829 36.0573 42.5459 36.537 42.6762L45.4744 45.1054 44.3661 46.1959 42.0814 37.2205C41.9588 36.7388 42.2499 36.2489 42.7316 36.1263 43.2133 36.0037 43.7032 36.2948 43.8258 36.7765Z" fill="#FF0000" transform="matrix(1 0 0 -1 812 455.244)"/><path d="M0.641507-0.631243 45.8797 45.3425 44.5967 46.605-0.641507 0.631243ZM43.8258 36.7765 46.4911 47.2471 36.0649 44.4132C35.5852 44.2829 35.3021 43.7883 35.4324 43.3087 35.5628 42.829 36.0573 42.5459 36.537 42.6762L45.4744 45.1054 44.3661 46.1959 42.0814 37.2205C41.9588 36.7388 42.2499 36.2489 42.7316 36.1263 43.2133 36.0037 43.7032 36.2948 43.8258 36.7765Z" transform="matrix(1 0 0 -1 715 224.244)"/><path d="M862.758 224.882 817.606 178.902 818.891 177.641 864.042 223.621ZM819.652 187.47 816.997 176.997 827.42 179.842C827.9 179.972 828.183 180.467 828.052 180.947 827.921 181.426 827.426 181.709 826.947 181.578L818.012 179.14 819.121 178.05 821.396 187.028C821.519 187.51 821.227 187.999 820.745 188.122 820.263 188.244 819.774 187.952 819.652 187.47Z" fill="#FF0000"/><text font-family="Cambria Math,Cambria Math_MSFontService,sans-serif" font-weight="700" font-size="32" transform="translate(777.529 211)">+</text><rect x="713" y="145" width="151" height="28" fill="#7F6000"/><rect x="703" y="142" width="171" height="32" fill="#E1EFD8"/><text font-family="Cambria Math,Cambria Math_MSFontService,sans-serif" font-weight="400" font-size="19" transform="translate(756.956 165)">Outputs</text><path d="M610.5 393.839 610.5 382.5" stroke="#000000" stroke-width="1.33333" stroke-miterlimit="8" fill="none" fill-rule="evenodd"/><path d="M760.5 393.839 760.5 382.5" stroke="#000000" stroke-width="1.33333" stroke-miterlimit="8" fill="none" fill-rule="evenodd"/><path d="M612.753 386.833 759.538 386.833 759.538 388.167 612.753 388.167ZM617.733 391.399 611.496 387.5 617.733 383.601C618.046 383.406 618.457 383.501 618.652 383.813 618.847 384.126 618.752 384.537 618.44 384.732L613.107 388.065 613.107 386.935 618.44 390.268C618.752 390.463 618.847 390.875 618.652 391.187 618.457 391.499 618.046 391.594 617.733 391.399ZM754.558 383.601 760.796 387.5 754.558 391.399C754.246 391.594 753.835 391.499 753.639 391.187 753.444 390.874 753.539 390.463 753.851 390.268L759.185 386.935 759.185 388.065 753.851 384.732C753.539 384.537 753.444 384.126 753.639 383.813 753.835 383.501 754.246 383.406 754.558 383.601Z"/><text font-family="Cambria Math,Cambria Math_MSFontService,sans-serif" font-weight="400" font-size="24" transform="translate(676.348 408)">d</text><path d="M808.5 394.839 808.5 383.5" stroke="#000000" stroke-width="1.33333" stroke-miterlimit="8" fill="none" fill-rule="evenodd"/><path d="M958.5 394.839 958.5 383.5" stroke="#000000" stroke-width="1.33333" stroke-miterlimit="8" fill="none" fill-rule="evenodd"/><path d="M810.753 387.833 957.538 387.833 957.538 389.167 810.753 389.167ZM815.733 392.399 809.496 388.5 815.733 384.601C816.046 384.406 816.457 384.501 816.652 384.813 816.847 385.126 816.752 385.537 816.44 385.732L811.107 389.065 811.107 387.935 816.44 391.268C816.752 391.463 816.847 391.875 816.652 392.187 816.457 392.499 816.046 392.594 815.733 392.399ZM952.558 384.601 958.796 388.5 952.558 392.399C952.246 392.594 951.835 392.499 951.639 392.187 951.444 391.874 951.539 391.463 951.851 391.268L957.185 387.935 957.185 389.065 951.851 385.732C951.539 385.537 951.444 385.126 951.639 384.813 951.835 384.501 952.246 384.406 952.558 384.601Z"/><text font-family="Cambria Math,Cambria Math_MSFontService,sans-serif" font-weight="400" font-size="24" transform="translate(873.788 409)">d</text><path d="M807 230 958 230 927.8 286 837.2 286Z" fill="#FBE5D6" fill-rule="evenodd"/><path d="M958 381 807 381 837.2 325 927.8 325Z" fill="#FBE5D6" fill-rule="evenodd"/><text font-family="Cambria Math,Cambria Math_MSFontService,sans-serif" font-weight="400" font-size="24" transform="translate(874.381 362)">A</text><text font-family="Cambria Math,Cambria Math_MSFontService,sans-serif" font-weight="400" font-size="24" transform="translate(874.548 266)">B</text><path d="M837.5 298.839 837.5 287.5" stroke="#000000" stroke-width="1.33333" stroke-miterlimit="8" fill="none" fill-rule="evenodd"/><path d="M928.5 298.839 928.5 287.5" stroke="#000000" stroke-width="1.33333" stroke-miterlimit="8" fill="none" fill-rule="evenodd"/><path d="M838.753 292.833 926.527 292.833 926.527 294.167 838.753 294.167ZM843.733 297.399 837.496 293.5 843.733 289.601C844.046 289.406 844.457 289.501 844.652 289.813 844.847 290.126 844.752 290.537 844.44 290.732L839.107 294.065 839.107 292.935 844.44 296.268C844.752 296.463 844.847 296.874 844.652 297.187 844.457 297.499 844.046 297.594 843.733 297.399ZM921.547 289.601 927.785 293.5 921.547 297.399C921.235 297.594 920.823 297.499 920.628 297.187 920.433 296.874 920.528 296.463 920.84 296.268L926.174 292.935 926.174 294.065 920.84 290.732C920.528 290.537 920.433 290.126 920.628 289.813 920.823 289.501 921.235 289.406 921.547 289.601Z"/><text font-family="Cambria Math,Cambria Math_MSFontService,sans-serif" font-weight="400" font-size="24" transform="translate(876.112 309)">r</text><text font-family="Cambria Math,Cambria Math_MSFontService,sans-serif" font-weight="400" font-size="24" transform="translate(675.44 549)">Weight update in LoRA</text></g></svg>