<svg width="862" height="271" xmlns="http://www.w3.org/2000/svg" xmlns:xlink="http://www.w3.org/1999/xlink" overflow="hidden"><g transform="translate(-151 -52)"><path d="M222.5 120.167C222.5 109.305 231.305 100.5 242.167 100.5L421.833 100.5C432.695 100.5 441.5 109.305 441.5 120.167L441.5 198.833C441.5 209.695 432.695 218.5 421.833 218.5L242.167 218.5C231.305 218.5 222.5 209.695 222.5 198.833Z" stroke="#172C51" stroke-width="1.33333" stroke-miterlimit="8" fill="#D9E2F2" fill-rule="evenodd"/><rect x="239.5" y="142.5" width="24" height="62" stroke="#172C51" stroke-width="1.33333" stroke-miterlimit="8" fill="#FFFFFF"/><text font-family="DengXian,DengXian_MSFontService,sans-serif" font-weight="700" font-size="37" transform="translate(268.016 186)">…</text><path d="M485.5 117.5C485.5 108.111 493.111 100.5 502.5 100.5L570.5 100.5C579.889 100.5 587.5 108.111 587.5 117.5L587.5 202.5C587.5 211.889 579.889 219.5 570.5 219.5L502.5 219.5C493.111 219.5 485.5 211.889 485.5 202.5Z" stroke="#172C51" stroke-width="1.33333" stroke-miterlimit="8" fill="#D9E2F2" fill-rule="evenodd"/><path d="M627.5 121.167C627.5 110.305 636.305 101.5 647.167 101.5L913.833 101.5C924.695 101.5 933.5 110.305 933.5 121.167L933.5 199.833C933.5 210.695 924.695 219.5 913.833 219.5L647.167 219.5C636.305 219.5 627.5 210.695 627.5 199.833Z" stroke="#172C51" stroke-width="1.33333" stroke-miterlimit="8" fill="#D9E2F2" fill-rule="evenodd"/><rect x="303.5" y="142.5" width="24" height="62" stroke="#172C51" stroke-width="1.33333" stroke-miterlimit="8" fill="#FFFFFF"/><path d="M327 173.167 381.37 173.167 381.37 174.833 327 174.833ZM376.479 169.96 382.943 174 376.479 178.04C376.088 178.284 375.574 178.165 375.33 177.775 375.086 177.385 375.205 176.871 375.595 176.627L380.929 173.293 380.929 174.707 375.595 171.373C375.205 171.13 375.086 170.615 375.33 170.225 375.574 169.835 376.088 169.716 376.479 169.96Z"/><text font-family="Cambria Math,Cambria Math_MSFontService,sans-serif" font-weight="400" font-size="16" transform="translate(161.55 181)">Input</text><path d="M204 174.167 236.449 174.167 236.449 175.833 204 175.833ZM231.557 170.96 238.021 175 231.557 179.04C231.167 179.284 230.653 179.165 230.409 178.775 230.165 178.385 230.284 177.871 230.674 177.627L236.007 174.293 236.007 175.707 230.674 172.373C230.284 172.129 230.165 171.615 230.409 171.225 230.653 170.835 231.167 170.716 231.557 170.96Z"/><path d="M346 261.167 352.667 261.167 352.667 262.833 346 262.833ZM357.667 261.167 363.331 261.167 363.331 262.833 357.667 262.833ZM358.439 257.96 364.903 262 358.439 266.04C358.049 266.284 357.535 266.165 357.291 265.775 357.047 265.385 357.166 264.871 357.556 264.627L362.889 261.293 362.889 262.707 357.556 259.373C357.166 259.129 357.047 258.615 357.291 258.225 357.535 257.835 358.049 257.716 358.439 257.96Z" fill="#FF0000"/><path d="M345 175 345 261.929" stroke="#FF0000" stroke-width="1.66667" stroke-miterlimit="8" stroke-dasharray="6.66667 5" fill="none" fill-rule="evenodd"/><path d="M328 174 343.118 174" stroke="#FF0000" stroke-width="1.66667" stroke-miterlimit="8" stroke-dasharray="6.66667 5" fill="none" fill-rule="evenodd"/><path d="M408 174.167 459.347 174.167 459.347 175.833 408 175.833ZM454.455 170.96 460.919 175 454.455 179.04C454.065 179.284 453.551 179.165 453.307 178.775 453.063 178.385 453.181 177.871 453.572 177.627L458.905 174.293 458.905 175.707 453.572 172.373C453.181 172.13 453.063 171.615 453.307 171.225 453.551 170.835 454.065 170.716 454.455 170.96Z"/><path d="M466.833 183.567 466.833 190.233 465.167 190.233 465.167 183.567ZM466.833 195.233 466.833 201.9 465.167 201.9 465.167 195.233ZM466.833 206.9 466.833 213.567 465.167 213.567 465.167 206.9ZM466.833 218.567 466.833 225.233 465.167 225.233 465.167 218.567ZM466.833 230.233 466.833 236.9 465.167 236.9 465.167 230.233ZM466.833 241.9 466.833 248.567 465.167 248.567 465.167 241.9ZM466.833 253.567 466.833 260.233 465.167 260.233 465.167 253.567ZM461.96 188.458 466 181.994 470.04 188.458C470.284 188.849 470.165 189.363 469.775 189.607 469.385 189.851 468.871 189.732 468.627 189.342L465.293 184.008 466.707 184.008 463.373 189.342C463.129 189.732 462.615 189.851 462.225 189.607 461.835 189.363 461.716 188.849 461.96 188.458Z" fill="#FF0000"/><path d="M427 262 464.795 262" stroke="#FF0000" stroke-width="1.66667" stroke-miterlimit="8" stroke-dasharray="6.66667 5" fill="none" fill-rule="evenodd"/><path d="M460.5 176C460.5 172.962 463.186 170.5 466.5 170.5 469.814 170.5 472.5 172.962 472.5 176 472.5 179.038 469.814 181.5 466.5 181.5 463.186 181.5 460.5 179.038 460.5 176Z" fill="#FFFFFF" fill-rule="evenodd"/><path d="M466.5 170.5 466.5 181.5M460.5 176 472.5 176" stroke="#000000" stroke-width="1.33333" stroke-miterlimit="8" fill="none" fill-rule="evenodd"/><path d="M460.5 176C460.5 172.962 463.186 170.5 466.5 170.5 469.814 170.5 472.5 172.962 472.5 176 472.5 179.038 469.814 181.5 466.5 181.5 463.186 181.5 460.5 179.038 460.5 176Z" stroke="#000000" stroke-width="1.33333" stroke-miterlimit="8" fill="none" fill-rule="evenodd"/><rect x="383.5" y="142.5" width="24" height="62" stroke="#172C51" stroke-width="1.33333" stroke-miterlimit="8" fill="#FFFFFF"/><path d="M400.982 155.085 400.759 154.337 399.165 154.717 397.821 154.018 399.496 153.356 399.496 152.644 397.821 151.982 399.165 151.283 400.759 151.663 400.982 150.915 400.224 150.734 401 150.332 400.567 149.66 399.791 150.062 399.992 149.384 399.159 149.185 398.735 150.613 397.391 151.31 397.589 149.684 396.904 149.328 395.43 150.294 395.43 148.901 396.597 147.856 395.986 147.308 395.43 147.805 395.43 147 394.567 147 394.567 147.805 394.014 147.308 393.403 147.856 394.567 148.901 394.567 150.294 393.093 149.328 392.411 149.684 392.606 151.307 391.265 150.613 390.841 149.185 390.005 149.384 390.206 150.062 389.433 149.66 389 150.329 389.776 150.734 389.018 150.915 389.241 151.663 390.832 151.283 392.179 151.982 390.504 152.644 390.504 153.356 392.179 154.018 390.832 154.717 389.241 154.337 389.018 155.085 389.776 155.266 389 155.671 389.433 156.34 390.206 155.938 390.005 156.616 390.841 156.818 391.265 155.387 392.606 154.693 392.411 156.319 393.093 156.672 394.567 155.706 394.567 157.099 393.403 158.144 394.014 158.692 394.567 158.195 394.567 159 395.43 159 395.43 158.195 395.986 158.692 396.597 158.144 395.43 157.099 395.43 155.706 396.904 156.672 397.589 156.319 397.391 154.693 398.735 155.387 399.159 156.818 399.992 156.616 399.791 155.938 400.567 156.34 401 155.671 400.224 155.266 400.982 155.085ZM398.248 153 396.895 153.537 395.863 153 396.895 152.465 398.248 153ZM396.624 150.473 396.465 151.79 395.43 152.328 395.43 151.258 396.624 150.473ZM393.376 150.473 394.567 151.258 394.567 152.328 393.535 151.79 393.376 150.473ZM391.749 153 393.105 152.465 394.137 153 393.105 153.537 391.749 153ZM393.376 155.527 393.535 154.21 394.567 153.672 394.567 154.742 393.376 155.527ZM396.624 155.527 395.43 154.742 395.43 153.672 396.465 154.21 396.624 155.527Z" fill="#0C6FBB" fill-rule="evenodd"/><path d="M319.983 154.411 319.779 153.725 318.318 154.074 317.086 153.433 318.622 152.827 318.622 152.173 317.086 151.567 318.318 150.926 319.779 151.275 319.983 150.589 319.289 150.423 320 150.054 319.603 149.438 318.892 149.807 319.076 149.186 318.313 149.002 317.924 150.312 316.692 150.951 316.874 149.46 316.245 149.134 314.894 150.02 314.894 148.743 315.964 147.785 315.404 147.282 314.894 147.738 314.894 147 314.103 147 314.103 147.738 313.596 147.282 313.036 147.785 314.103 148.743 314.103 150.02 312.752 149.134 312.126 149.46 312.306 150.948 311.076 150.312 310.687 149.002 309.921 149.186 310.105 149.807 309.397 149.438 309 150.052 309.711 150.423 309.017 150.589 309.221 151.275 310.679 150.926 311.914 151.567 310.378 152.173 310.378 152.827 311.914 153.433 310.679 154.074 309.221 153.725 309.017 154.411 309.711 154.577 309 154.948 309.397 155.562 310.105 155.193 309.921 155.814 310.687 156 311.076 154.688 312.306 154.052 312.126 155.542 312.752 155.866 314.103 154.98 314.103 156.257 313.036 157.215 313.596 157.718 314.103 157.262 314.103 158 314.894 158 314.894 157.262 315.404 157.718 315.964 157.215 314.894 156.257 314.894 154.98 316.245 155.866 316.874 155.542 316.692 154.052 317.924 154.688 318.313 156 319.076 155.814 318.892 155.193 319.603 155.562 320 154.948 319.289 154.577 319.983 154.411ZM317.477 152.5 316.237 152.993 315.291 152.5 316.237 152.01 317.477 152.5ZM315.989 150.183 315.843 151.391 314.894 151.884 314.894 150.903 315.989 150.183ZM313.011 150.183 314.103 150.903 314.103 151.884 313.157 151.391 313.011 150.183ZM311.52 152.5 312.763 152.01 313.709 152.5 312.763 152.993 311.52 152.5ZM313.011 154.817 313.157 153.609 314.103 153.116 314.103 154.097 313.011 154.817ZM315.989 154.817 314.894 154.097 314.894 153.116 315.843 153.609 315.989 154.817Z" fill="#0C6FBB" fill-rule="evenodd"/><path d="M256.983 154.411 256.779 153.725 255.318 154.074 254.086 153.433 255.622 152.827 255.622 152.173 254.086 151.567 255.318 150.926 256.779 151.275 256.983 150.589 256.289 150.423 257 150.054 256.603 149.438 255.892 149.807 256.076 149.186 255.313 149.002 254.924 150.312 253.692 150.951 253.874 149.46 253.245 149.134 251.894 150.02 251.894 148.743 252.964 147.785 252.404 147.282 251.894 147.738 251.894 147 251.103 147 251.103 147.738 250.596 147.282 250.036 147.785 251.103 148.743 251.103 150.02 249.752 149.134 249.126 149.46 249.306 150.948 248.076 150.312 247.687 149.002 246.921 149.186 247.106 149.807 246.397 149.438 246 150.052 246.711 150.423 246.017 150.589 246.221 151.275 247.679 150.926 248.914 151.567 247.378 152.173 247.378 152.827 248.914 153.433 247.679 154.074 246.221 153.725 246.017 154.411 246.711 154.577 246 154.948 246.397 155.562 247.106 155.193 246.921 155.814 247.687 156 248.076 154.688 249.306 154.052 249.126 155.542 249.752 155.866 251.103 154.98 251.103 156.257 250.036 157.215 250.596 157.718 251.103 157.262 251.103 158 251.894 158 251.894 157.262 252.404 157.718 252.964 157.215 251.894 156.257 251.894 154.98 253.245 155.866 253.874 155.542 253.692 154.052 254.924 154.688 255.313 156 256.076 155.814 255.892 155.193 256.603 155.562 257 154.948 256.289 154.577 256.983 154.411ZM254.477 152.5 253.237 152.993 252.291 152.5 253.237 152.01 254.477 152.5ZM252.989 150.183 252.843 151.391 251.894 151.884 251.894 150.903 252.989 150.183ZM250.011 150.183 251.103 150.903 251.103 151.884 250.157 151.391 250.011 150.183ZM248.52 152.5 249.763 152.01 250.709 152.5 249.763 152.993 248.52 152.5ZM250.011 154.817 250.157 153.609 251.103 153.116 251.103 154.097 250.011 154.817ZM252.989 154.817 251.894 154.097 251.894 153.116 252.843 153.609 252.989 154.817Z" fill="#0C6FBB" fill-rule="evenodd"/><path d="M472 174.167 524.481 174.167 524.481 175.833 472 175.833ZM519.589 170.96 526.053 175 519.589 179.04C519.199 179.284 518.685 179.165 518.441 178.775 518.197 178.385 518.315 177.871 518.706 177.627L524.039 174.293 524.039 175.707 518.706 172.373C518.315 172.13 518.197 171.615 518.441 171.225 518.685 170.835 519.199 170.716 519.589 170.96Z"/><path d="M365.5 289.5 365.5 235.5 392.5 246.3 392.5 278.7Z" stroke="#172C51" stroke-width="1.33333" stroke-miterlimit="8" fill="#E1EFD8" fill-rule="evenodd"/><path d="M427.5 235.5 427.5 289.5 400.5 278.7 400.5 246.3Z" stroke="#172C51" stroke-width="1.33333" stroke-miterlimit="8" fill="#E1EFD8" fill-rule="evenodd"/><path d="M413.783 255C413.088 253.335 413.457 252.381 413.99 251.483 414.572 250.503 414.725 249.527 414.725 249.527 414.725 249.527 415.18 250.216 415 251.291 415.807 250.247 415.96 248.593 415.839 247.957 417.67 249.433 418.45 252.631 417.395 255 423 251.337 418.788 245.859 418.058 245.238 418.301 245.859 418.346 246.903 417.854 247.409 417.02 243.751 414.955 243 414.955 243 415.198 244.889 414.067 246.949 412.98 248.494 412.939 247.742 412.898 247.221 412.556 246.501 412.479 247.868 411.573 248.985 411.329 250.351 411 252.208 411.577 253.565 413.783 255Z" fill="#E03F20" fill-rule="evenodd"/><path d="M374.551 255C373.914 253.335 374.253 252.381 374.741 251.483 375.274 250.503 375.415 249.527 375.415 249.527 375.415 249.527 375.832 250.216 375.667 251.291 376.406 250.247 376.547 248.593 376.436 247.957 378.114 249.433 378.829 252.631 377.862 255 383 251.337 379.139 245.859 378.47 245.238 378.692 245.859 378.734 246.903 378.283 247.409 377.518 243.751 375.625 243 375.625 243 375.849 244.889 374.811 246.949 373.815 248.494 373.778 247.742 373.74 247.221 373.426 246.501 373.356 247.868 372.525 248.985 372.302 250.351 372 252.208 372.529 253.565 374.551 255Z" fill="#E03F20" fill-rule="evenodd"/><text font-family="Cambria Math,Cambria Math_MSFontService,sans-serif" font-weight="400" font-size="16" transform="translate(274.995 126)">Visual Encoder</text><text font-family="Cambria Math,Cambria Math_MSFontService,sans-serif" font-weight="400" font-size="16" transform="translate(498.995 126)">Connector</text><rect x="527.5" y="142.5" width="24" height="62" stroke="#172C51" stroke-width="1.33333" stroke-miterlimit="8" fill="#FFFFFF"/><path d="M544.982 155.085 544.759 154.337 543.165 154.717 541.821 154.018 543.496 153.356 543.496 152.644 541.821 151.982 543.165 151.283 544.759 151.663 544.982 150.915 544.224 150.734 545 150.332 544.567 149.66 543.791 150.062 543.992 149.384 543.159 149.185 542.735 150.613 541.391 151.31 541.589 149.684 540.904 149.328 539.43 150.294 539.43 148.901 540.597 147.856 539.986 147.308 539.43 147.805 539.43 147 538.567 147 538.567 147.805 538.014 147.308 537.403 147.856 538.567 148.901 538.567 150.294 537.093 149.328 536.411 149.684 536.606 151.307 535.265 150.613 534.841 149.185 534.005 149.384 534.206 150.062 533.433 149.66 533 150.329 533.776 150.734 533.018 150.915 533.241 151.663 534.832 151.283 536.179 151.982 534.504 152.644 534.504 153.356 536.179 154.018 534.832 154.717 533.241 154.337 533.018 155.085 533.776 155.266 533 155.671 533.433 156.34 534.206 155.938 534.005 156.616 534.841 156.818 535.265 155.387 536.606 154.693 536.411 156.319 537.093 156.672 538.567 155.706 538.567 157.099 537.403 158.144 538.014 158.692 538.567 158.195 538.567 159 539.43 159 539.43 158.195 539.986 158.692 540.597 158.144 539.43 157.099 539.43 155.706 540.904 156.672 541.589 156.319 541.391 154.693 542.735 155.387 543.159 156.818 543.992 156.616 543.791 155.938 544.567 156.34 545 155.671 544.224 155.266 544.982 155.085ZM542.248 153 540.895 153.537 539.863 153 540.895 152.465 542.248 153ZM540.624 150.473 540.465 151.79 539.43 152.328 539.43 151.258 540.624 150.473ZM537.376 150.473 538.567 151.258 538.567 152.328 537.535 151.79 537.376 150.473ZM535.749 153 537.105 152.465 538.137 153 537.105 153.537 535.749 153ZM537.376 155.527 537.535 154.21 538.567 153.672 538.567 154.742 537.376 155.527ZM540.624 155.527 539.43 154.742 539.43 153.672 540.465 154.21 540.624 155.527Z" fill="#0C6FBB" fill-rule="evenodd"/><path d="M509.5 290.5 509.5 236.5 536.5 247.3 536.5 279.7Z" stroke="#172C51" stroke-width="1.33333" stroke-miterlimit="8" fill="#E1EFD8" fill-rule="evenodd"/><path d="M571.5 236.5 571.5 290.5 544.5 279.7 544.5 247.3Z" stroke="#172C51" stroke-width="1.33333" stroke-miterlimit="8" fill="#E1EFD8" fill-rule="evenodd"/><path d="M490 261.167 496.667 261.167 496.667 262.833 490 262.833ZM501.667 261.167 507.331 261.167 507.331 262.833 501.667 262.833ZM502.439 257.96 508.903 262 502.439 266.04C502.049 266.284 501.535 266.165 501.291 265.775 501.047 265.385 501.166 264.871 501.556 264.627L506.889 261.293 506.889 262.707 501.556 259.373C501.166 259.129 501.047 258.615 501.291 258.225 501.535 257.835 502.049 257.716 502.439 257.96Z" fill="#FF0000"/><path d="M489 176 489 262.929" stroke="#FF0000" stroke-width="1.66667" stroke-miterlimit="8" stroke-dasharray="6.66667 5" fill="none" fill-rule="evenodd"/><path d="M472 175 487.118 175" stroke="#FF0000" stroke-width="1.66667" stroke-miterlimit="8" stroke-dasharray="6.66667 5" fill="none" fill-rule="evenodd"/><path d="M552 175.167 603.347 175.167 603.347 176.833 552 176.833ZM598.455 171.96 604.919 176 598.455 180.04C598.065 180.284 597.551 180.165 597.307 179.775 597.063 179.385 597.181 178.871 597.572 178.627L602.905 175.293 602.905 176.707 597.572 173.373C597.181 173.13 597.063 172.615 597.307 172.225 597.551 171.835 598.065 171.716 598.455 171.96Z"/><path d="M610.833 184.567 610.833 191.233 609.167 191.233 609.167 184.567ZM610.833 196.233 610.833 202.9 609.167 202.9 609.167 196.233ZM610.833 207.9 610.833 214.567 609.167 214.567 609.167 207.9ZM610.833 219.567 610.833 226.233 609.167 226.233 609.167 219.567ZM610.833 231.233 610.833 237.9 609.167 237.9 609.167 231.233ZM610.833 242.9 610.833 249.567 609.167 249.567 609.167 242.9ZM610.833 254.567 610.833 261.233 609.167 261.233 609.167 254.567ZM605.96 189.458 610 182.994 614.04 189.458C614.284 189.849 614.165 190.363 613.775 190.607 613.385 190.851 612.871 190.732 612.627 190.342L609.293 185.008 610.707 185.008 607.373 190.342C607.129 190.732 606.615 190.851 606.225 190.607 605.835 190.363 605.716 189.849 605.96 189.458Z" fill="#FF0000"/><path d="M605.5 177C605.5 173.962 607.963 171.5 611 171.5 614.038 171.5 616.5 173.962 616.5 177 616.5 180.038 614.038 182.5 611 182.5 607.963 182.5 605.5 180.038 605.5 177Z" fill="#FFFFFF" fill-rule="evenodd"/><path d="M611 171.5 611 182.5M605.5 177 616.5 177" stroke="#000000" stroke-width="1.33333" stroke-miterlimit="8" fill="none" fill-rule="evenodd"/><path d="M605.5 177C605.5 173.962 607.963 171.5 611 171.5 614.038 171.5 616.5 173.962 616.5 177 616.5 180.038 614.038 182.5 611 182.5 607.963 182.5 605.5 180.038 605.5 177Z" stroke="#000000" stroke-width="1.33333" stroke-miterlimit="8" fill="none" fill-rule="evenodd"/><path d="M617 175.167 640 175.167 640 176.833 617 176.833ZM635.109 171.96 641.573 176 635.109 180.04C634.718 180.284 634.204 180.165 633.96 179.775 633.716 179.385 633.835 178.871 634.225 178.627L639.559 175.293 639.559 176.707 634.225 173.373C633.835 173.129 633.716 172.615 633.96 172.225 634.204 171.835 634.718 171.716 635.109 171.96Z"/><path d="M558.551 256C557.914 254.335 558.253 253.381 558.741 252.483 559.274 251.503 559.415 250.527 559.415 250.527 559.415 250.527 559.832 251.216 559.667 252.291 560.406 251.247 560.547 249.593 560.436 248.957 562.114 250.433 562.829 253.631 561.862 256 567 252.337 563.139 246.859 562.47 246.238 562.692 246.859 562.734 247.903 562.283 248.409 561.518 244.751 559.625 244 559.625 244 559.849 245.889 558.811 247.949 557.815 249.494 557.778 248.742 557.74 248.221 557.426 247.501 557.356 248.868 556.525 249.985 556.302 251.351 556 253.208 556.529 254.565 558.551 256Z" fill="#E03F20" fill-rule="evenodd"/><path d="M518.551 256C517.914 254.335 518.253 253.381 518.741 252.483 519.274 251.503 519.415 250.527 519.415 250.527 519.415 250.527 519.832 251.216 519.667 252.291 520.406 251.247 520.547 249.593 520.436 248.957 522.114 250.433 522.829 253.631 521.862 256 527 252.337 523.139 246.859 522.47 246.238 522.692 246.859 522.734 247.903 522.283 248.409 521.518 244.751 519.625 244 519.625 244 519.849 245.889 518.811 247.949 517.815 249.494 517.778 248.742 517.74 248.221 517.426 247.501 517.356 248.868 516.525 249.985 516.302 251.351 516 253.208 516.529 254.565 518.551 256Z" fill="#E03F20" fill-rule="evenodd"/><path d="M572 262 609.795 262" stroke="#FF0000" stroke-width="1.66667" stroke-miterlimit="8" stroke-dasharray="6.66667 5" fill="none" fill-rule="evenodd"/><path d="M427 262 464.795 262" stroke="#FF0000" stroke-width="1.66667" stroke-miterlimit="8" stroke-dasharray="6.66667 5" fill="none" fill-rule="evenodd"/><path d="M729 176.167 781.481 176.167 781.481 177.833 729 177.833ZM776.589 172.96 783.053 177 776.589 181.04C776.199 181.284 775.685 181.165 775.441 180.775 775.197 180.385 775.315 179.871 775.706 179.627L781.039 176.293 781.039 177.707 775.706 174.373C775.315 174.13 775.197 173.615 775.441 173.225 775.685 172.835 776.199 172.716 776.589 172.96Z"/><rect x="783.5" y="144.5" width="25" height="62" stroke="#172C51" stroke-width="1.33333" stroke-miterlimit="8" fill="#FFFFFF"/><path d="M800.983 156.411 800.779 155.725 799.318 156.074 798.086 155.433 799.622 154.827 799.622 154.173 798.086 153.567 799.318 152.926 800.779 153.275 800.983 152.589 800.289 152.423 801 152.054 800.603 151.438 799.892 151.807 800.076 151.186 799.313 151.002 798.924 152.312 797.692 152.951 797.874 151.46 797.245 151.134 795.894 152.02 795.894 150.743 796.964 149.785 796.404 149.282 795.894 149.738 795.894 149 795.103 149 795.103 149.738 794.596 149.282 794.036 149.785 795.103 150.743 795.103 152.02 793.752 151.134 793.126 151.46 793.306 152.948 792.076 152.312 791.687 151.002 790.921 151.186 791.106 151.807 790.397 151.438 790 152.052 790.711 152.423 790.017 152.589 790.221 153.275 791.679 152.926 792.914 153.567 791.378 154.173 791.378 154.827 792.914 155.433 791.679 156.074 790.221 155.725 790.017 156.411 790.711 156.577 790 156.948 790.397 157.562 791.106 157.193 790.921 157.814 791.687 158 792.076 156.688 793.306 156.052 793.126 157.542 793.752 157.866 795.103 156.98 795.103 158.257 794.036 159.215 794.596 159.718 795.103 159.262 795.103 160 795.894 160 795.894 159.262 796.404 159.718 796.964 159.215 795.894 158.257 795.894 156.98 797.245 157.866 797.874 157.542 797.692 156.052 798.924 156.688 799.313 158 800.076 157.814 799.892 157.193 800.603 157.562 801 156.948 800.289 156.577 800.983 156.411ZM798.477 154.5 797.237 154.993 796.291 154.5 797.237 154.01 798.477 154.5ZM796.989 152.183 796.843 153.391 795.894 153.884 795.894 152.903 796.989 152.183ZM794.011 152.183 795.103 152.903 795.103 153.884 794.157 153.391 794.011 152.183ZM792.52 154.5 793.763 154.01 794.709 154.5 793.763 154.993 792.52 154.5ZM794.011 156.817 794.157 155.609 795.103 155.116 795.103 156.097 794.011 156.817ZM796.989 156.817 795.894 156.097 795.894 155.116 796.843 155.609 796.989 156.817Z" fill="#0C6FBB" fill-rule="evenodd"/><path d="M766.5 291.5 766.5 237.5 793.5 248.3 793.5 280.7Z" stroke="#172C51" stroke-width="1.33333" stroke-miterlimit="8" fill="#E1EFD8" fill-rule="evenodd"/><path d="M828.5 237.5 828.5 291.5 801.5 280.7 801.5 248.3Z" stroke="#172C51" stroke-width="1.33333" stroke-miterlimit="8" fill="#E1EFD8" fill-rule="evenodd"/><path d="M747 263.167 753.667 263.167 753.667 264.833 747 264.833ZM758.667 263.167 764.331 263.167 764.331 264.833 758.667 264.833ZM759.439 259.96 765.903 264 759.439 268.04C759.049 268.284 758.535 268.165 758.291 267.775 758.047 267.385 758.166 266.871 758.556 266.627L763.889 263.293 763.889 264.707 758.556 261.373C758.166 261.129 758.047 260.615 758.291 260.225 758.535 259.835 759.049 259.716 759.439 259.96Z" fill="#FF0000"/><path d="M746 178 746 264.929" stroke="#FF0000" stroke-width="1.66667" stroke-miterlimit="8" stroke-dasharray="6.66667 5" fill="none" fill-rule="evenodd"/><path d="M729 176 744.118 176" stroke="#FF0000" stroke-width="1.66667" stroke-miterlimit="8" stroke-dasharray="6.66667 5" fill="none" fill-rule="evenodd"/><path d="M808 177.167 859.347 177.167 859.347 178.833 808 178.833ZM854.455 173.96 860.919 178 854.455 182.04C854.065 182.284 853.551 182.165 853.307 181.775 853.063 181.385 853.181 180.871 853.572 180.627L858.905 177.293 858.905 178.707 853.572 175.373C853.181 175.13 853.063 174.615 853.307 174.225 853.551 173.835 854.065 173.716 854.455 173.96Z"/><path d="M867.833 186.567 867.833 193.233 866.167 193.233 866.167 186.567ZM867.833 198.233 867.833 204.9 866.167 204.9 866.167 198.233ZM867.833 209.9 867.833 216.567 866.167 216.567 866.167 209.9ZM867.833 221.567 867.833 228.233 866.167 228.233 866.167 221.567ZM867.833 233.233 867.833 239.9 866.167 239.9 866.167 233.233ZM867.833 244.9 867.833 251.567 866.167 251.567 866.167 244.9ZM867.833 256.567 867.833 263.233 866.167 263.233 866.167 256.567ZM862.96 191.458 867 184.994 871.04 191.458C871.284 191.849 871.165 192.363 870.775 192.607 870.385 192.851 869.871 192.732 869.627 192.342L866.293 187.008 867.707 187.008 864.373 192.342C864.129 192.732 863.615 192.851 863.225 192.607 862.835 192.363 862.716 191.849 862.96 191.458Z" fill="#FF0000"/><path d="M861.5 178.5C861.5 175.186 864.186 172.5 867.5 172.5 870.814 172.5 873.5 175.186 873.5 178.5 873.5 181.814 870.814 184.5 867.5 184.5 864.186 184.5 861.5 181.814 861.5 178.5Z" fill="#FFFFFF" fill-rule="evenodd"/><path d="M867.5 172.5 867.5 184.5M861.5 178.5 873.5 178.5" stroke="#000000" stroke-width="1.33333" stroke-miterlimit="8" fill="none" fill-rule="evenodd"/><path d="M861.5 178.5C861.5 175.186 864.186 172.5 867.5 172.5 870.814 172.5 873.5 175.186 873.5 178.5 873.5 181.814 870.814 184.5 867.5 184.5 864.186 184.5 861.5 181.814 861.5 178.5Z" stroke="#000000" stroke-width="1.33333" stroke-miterlimit="8" fill="none" fill-rule="evenodd"/><path d="M814.783 257C814.088 255.335 814.457 254.381 814.99 253.483 815.572 252.503 815.725 251.527 815.725 251.527 815.725 251.527 816.18 252.216 816 253.291 816.807 252.247 816.96 250.593 816.839 249.957 818.67 251.433 819.45 254.631 818.395 257 824 253.337 819.788 247.859 819.058 247.238 819.301 247.859 819.346 248.903 818.854 249.409 818.02 245.751 815.955 245 815.955 245 816.198 246.889 815.067 248.949 813.98 250.494 813.939 249.742 813.898 249.221 813.556 248.501 813.479 249.868 812.573 250.985 812.329 252.351 812 254.208 812.577 255.565 814.783 257Z" fill="#E03F20" fill-rule="evenodd"/><path d="M775.551 257C774.914 255.335 775.253 254.381 775.741 253.483 776.274 252.503 776.415 251.527 776.415 251.527 776.415 251.527 776.832 252.216 776.667 253.291 777.406 252.247 777.547 250.593 777.436 249.957 779.114 251.433 779.829 254.631 778.862 257 784 253.337 780.139 247.859 779.47 247.238 779.692 247.859 779.734 248.903 779.283 249.409 778.518 245.751 776.625 245 776.625 245 776.849 246.889 775.811 248.949 774.815 250.494 774.778 249.742 774.74 249.221 774.426 248.501 774.356 249.868 773.525 250.985 773.302 252.351 773 254.208 773.529 255.565 775.551 257Z" fill="#E03F20" fill-rule="evenodd"/><path d="M828 263 865.795 263" stroke="#FF0000" stroke-width="1.66667" stroke-miterlimit="8" stroke-dasharray="6.66667 5" fill="none" fill-rule="evenodd"/><rect x="642.5" y="142.5" width="25" height="62" stroke="#172C51" stroke-width="1.33333" stroke-miterlimit="8" fill="#FFFFFF"/><path d="M659.983 155.085 659.779 154.337 658.318 154.717 657.086 154.018 658.622 153.356 658.622 152.644 657.086 151.982 658.318 151.283 659.779 151.663 659.983 150.915 659.289 150.734 660 150.332 659.603 149.66 658.892 150.062 659.076 149.384 658.313 149.185 657.924 150.613 656.692 151.31 656.874 149.684 656.245 149.328 654.894 150.294 654.894 148.901 655.964 147.856 655.404 147.308 654.894 147.805 654.894 147 654.103 147 654.103 147.805 653.596 147.308 653.036 147.856 654.103 148.901 654.103 150.294 652.752 149.328 652.126 149.684 652.306 151.307 651.076 150.613 650.687 149.185 649.921 149.384 650.106 150.062 649.397 149.66 649 150.329 649.711 150.734 649.017 150.915 649.221 151.663 650.679 151.283 651.914 151.982 650.378 152.644 650.378 153.356 651.914 154.018 650.679 154.717 649.221 154.337 649.017 155.085 649.711 155.266 649 155.671 649.397 156.34 650.106 155.938 649.921 156.616 650.687 156.818 651.076 155.387 652.306 154.693 652.126 156.319 652.752 156.672 654.103 155.706 654.103 157.099 653.036 158.144 653.596 158.692 654.103 158.195 654.103 159 654.894 159 654.894 158.195 655.404 158.692 655.964 158.144 654.894 157.099 654.894 155.706 656.245 156.672 656.874 156.319 656.692 154.693 657.924 155.387 658.313 156.818 659.076 156.616 658.892 155.938 659.603 156.34 660 155.671 659.289 155.266 659.983 155.085ZM657.477 153 656.237 153.537 655.291 153 656.237 152.465 657.477 153ZM655.989 150.473 655.843 151.79 654.894 152.328 654.894 151.258 655.989 150.473ZM653.011 150.473 654.103 151.258 654.103 152.328 653.157 151.79 653.011 150.473ZM651.52 153 652.763 152.465 653.709 153 652.763 153.537 651.52 153ZM653.011 155.527 653.157 154.21 654.103 153.672 654.103 154.742 653.011 155.527ZM655.989 155.527 654.894 154.742 654.894 153.672 655.843 154.21 655.989 155.527Z" fill="#0C6FBB" fill-rule="evenodd"/><rect x="705.5" y="142.5" width="24" height="62" stroke="#172C51" stroke-width="1.33333" stroke-miterlimit="8" fill="#FFFFFF"/><path d="M722.982 155.085 722.759 154.337 721.165 154.717 719.821 154.018 721.496 153.356 721.496 152.644 719.821 151.982 721.165 151.283 722.759 151.663 722.982 150.915 722.224 150.734 723 150.332 722.567 149.66 721.791 150.062 721.992 149.384 721.159 149.185 720.735 150.613 719.391 151.31 719.589 149.684 718.904 149.328 717.43 150.294 717.43 148.901 718.597 147.856 717.986 147.308 717.43 147.805 717.43 147 716.567 147 716.567 147.805 716.014 147.308 715.403 147.856 716.567 148.901 716.567 150.294 715.093 149.328 714.411 149.684 714.606 151.307 713.265 150.613 712.841 149.185 712.005 149.384 712.206 150.062 711.433 149.66 711 150.329 711.776 150.734 711.018 150.915 711.241 151.663 712.832 151.283 714.179 151.982 712.504 152.644 712.504 153.356 714.179 154.018 712.832 154.717 711.241 154.337 711.018 155.085 711.776 155.266 711 155.671 711.433 156.34 712.206 155.938 712.005 156.616 712.841 156.818 713.265 155.387 714.606 154.693 714.411 156.319 715.093 156.672 716.567 155.706 716.567 157.099 715.403 158.144 716.014 158.692 716.567 158.195 716.567 159 717.43 159 717.43 158.195 717.986 158.692 718.597 158.144 717.43 157.099 717.43 155.706 718.904 156.672 719.589 156.319 719.391 154.693 720.735 155.387 721.159 156.818 721.992 156.616 721.791 155.938 722.567 156.34 723 155.671 722.224 155.266 722.982 155.085ZM720.248 153 718.895 153.537 717.863 153 718.895 152.465 720.248 153ZM718.624 150.473 718.465 151.79 717.43 152.328 717.43 151.258 718.624 150.473ZM715.376 150.473 716.567 151.258 716.567 152.328 715.535 151.79 715.376 150.473ZM713.749 153 715.105 152.465 716.137 153 715.105 153.537 713.749 153ZM715.376 155.527 715.535 154.21 716.567 153.672 716.567 154.742 715.376 155.527ZM718.624 155.527 717.43 154.742 717.43 153.672 718.465 154.21 718.624 155.527Z" fill="#0C6FBB" fill-rule="evenodd"/><text font-family="DengXian,DengXian_MSFontService,sans-serif" font-weight="700" font-size="37" transform="translate(670.517 186)">…</text><path d="M874 177.167 891.331 177.167 891.331 178.833 874 178.833ZM886.439 173.96 892.903 178 886.439 182.04C886.049 182.284 885.535 182.165 885.291 181.775 885.047 181.385 885.166 180.871 885.556 180.627L890.889 177.293 890.889 178.707 885.556 175.373C885.166 175.129 885.047 174.615 885.291 174.225 885.535 173.835 886.049 173.716 886.439 173.96Z"/><rect x="893.5" y="145.5" width="25" height="62" stroke="#172C51" stroke-width="1.33333" stroke-miterlimit="8" fill="#FFFFFF"/><path d="M910.983 157.411 910.779 156.725 909.318 157.074 908.086 156.433 909.622 155.827 909.622 155.173 908.086 154.567 909.318 153.926 910.779 154.275 910.983 153.589 910.289 153.423 911 153.054 910.603 152.438 909.892 152.807 910.076 152.186 909.313 152.002 908.924 153.312 907.692 153.951 907.874 152.46 907.245 152.134 905.894 153.02 905.894 151.743 906.964 150.785 906.404 150.282 905.894 150.738 905.894 150 905.103 150 905.103 150.738 904.596 150.282 904.036 150.785 905.103 151.743 905.103 153.02 903.752 152.134 903.126 152.46 903.306 153.948 902.076 153.312 901.687 152.002 900.921 152.186 901.106 152.807 900.397 152.438 900 153.052 900.711 153.423 900.017 153.589 900.221 154.275 901.679 153.926 902.914 154.567 901.378 155.173 901.378 155.827 902.914 156.433 901.679 157.074 900.221 156.725 900.017 157.411 900.711 157.577 900 157.948 900.397 158.562 901.106 158.193 900.921 158.814 901.687 159 902.076 157.688 903.306 157.052 903.126 158.542 903.752 158.866 905.103 157.98 905.103 159.257 904.036 160.215 904.596 160.718 905.103 160.262 905.103 161 905.894 161 905.894 160.262 906.404 160.718 906.964 160.215 905.894 159.257 905.894 157.98 907.245 158.866 907.874 158.542 907.692 157.052 908.924 157.688 909.313 159 910.076 158.814 909.892 158.193 910.603 158.562 911 157.948 910.289 157.577 910.983 157.411ZM908.477 155.5 907.237 155.993 906.291 155.5 907.237 155.01 908.477 155.5ZM906.989 153.183 906.843 154.391 905.894 154.884 905.894 153.903 906.989 153.183ZM904.011 153.183 905.103 153.903 905.103 154.884 904.157 154.391 904.011 153.183ZM902.52 155.5 903.763 155.01 904.709 155.5 903.763 155.993 902.52 155.5ZM904.011 157.817 904.157 156.609 905.103 156.116 905.103 157.097 904.011 157.817ZM906.989 157.817 905.894 157.097 905.894 156.116 906.843 156.609 906.989 157.817Z" fill="#0C6FBB" fill-rule="evenodd"/><path d="M919 177.167 947.67 177.167 947.67 178.833 919 178.833ZM942.778 173.96 949.242 178 942.778 182.04C942.388 182.284 941.873 182.165 941.63 181.775 941.386 181.385 941.504 180.871 941.895 180.627L947.228 177.293 947.228 178.707 941.895 175.373C941.504 175.129 941.386 174.615 941.63 174.225 941.873 173.835 942.388 173.716 942.778 173.96Z"/><text font-family="Cambria Math,Cambria Math_MSFontService,sans-serif" font-weight="400" font-size="16" transform="translate(952.479 181)">Output</text><text font-family="Cambria Math,Cambria Math_MSFontService,sans-serif" font-weight="400" font-size="16" transform="translate(703.676 126)">Large Language Model</text><text font-family="Cambria Math,Cambria Math_MSFontService,sans-serif" font-weight="400" font-size="16" transform="translate(344.095 309)">Mid</text><text font-family="Cambria Math,Cambria Math_MSFontService,sans-serif" font-weight="400" font-size="16" transform="translate(370.429 309)">-</text><text font-family="Cambria Math,Cambria Math_MSFontService,sans-serif" font-weight="400" font-size="16" transform="translate(375.762 309)">Upper Layers</text><text font-family="Cambria Math,Cambria Math_MSFontService,sans-serif" font-weight="400" font-size="16" transform="translate(516.491 309)">All Layers</text><text font-family="Cambria Math,Cambria Math_MSFontService,sans-serif" font-weight="400" font-size="16" transform="translate(752.862 309)">Top Attn Layers</text><rect x="343.5" y="53.5001" width="10" height="26" stroke="#172C51" stroke-width="1.33333" stroke-miterlimit="8" fill="#FFFFFF"/><path d="M350.992 58.3686 350.9 58.0569 350.236 58.2156 349.675 57.9242 350.373 57.6485 350.373 57.3515 349.675 57.0758 350.236 56.7844 350.9 56.9431 350.992 56.6314 350.677 56.556 351 56.3884 350.82 56.1082 350.496 56.2759 350.58 55.9935 350.233 55.9102 350.056 56.5054 349.496 56.7957 349.579 56.1184 349.293 55.9698 348.679 56.3726 348.679 55.7921 349.165 55.3567 348.911 55.1283 348.679 55.3353 348.679 55 348.32 55 348.32 55.3353 348.089 55.1283 347.835 55.3567 348.32 55.7921 348.32 56.3726 347.706 55.9698 347.421 56.1184 347.503 56.7946 346.944 56.5054 346.767 55.9102 346.419 55.9935 346.503 56.2759 346.18 56.1082 346 56.3873 346.323 56.556 346.008 56.6314 346.1 56.9431 346.763 56.7844 347.325 57.0758 346.627 57.3515 346.627 57.6485 347.325 57.9242 346.763 58.2156 346.1 58.0569 346.008 58.3686 346.323 58.444 346 58.6127 346.18 58.8918 346.503 58.7241 346.419 59.0065 346.767 59.0909 346.944 58.4946 347.503 58.2054 347.421 58.8828 347.706 59.0302 348.32 58.6274 348.32 59.2079 347.835 59.6433 348.089 59.8717 348.32 59.6647 348.32 60 348.679 60 348.679 59.6647 348.911 59.8717 349.165 59.6433 348.679 59.2079 348.679 58.6274 349.293 59.0302 349.579 58.8828 349.496 58.2054 350.056 58.4946 350.233 59.0909 350.58 59.0065 350.496 58.7241 350.82 58.8918 351 58.6127 350.677 58.444 350.992 58.3686ZM349.853 57.5 349.289 57.7239 348.86 57.5 349.289 57.2772 349.853 57.5ZM349.177 56.4469 349.11 56.9959 348.679 57.2198 348.679 56.7743 349.177 56.4469ZM347.823 56.4469 348.32 56.7743 348.32 57.2198 347.89 56.9959 347.823 56.4469ZM347.145 57.5 347.711 57.2772 348.14 57.5 347.711 57.7239 347.145 57.5ZM347.823 58.5531 347.89 58.0041 348.32 57.7802 348.32 58.2257 347.823 58.5531ZM349.177 58.5531 348.679 58.2257 348.679 57.7802 349.11 58.0041 349.177 58.5531Z" fill="#0C6FBB" fill-rule="evenodd"/><text font-family="Cambria Math,Cambria Math_MSFontService,sans-serif" font-weight="400" font-size="13" transform="translate(365.684 70)">LoRA Target Layers</text><path d="M501.5 79.5001 501.5 54.5001 514.5 59.5001 514.5 74.5001Z" stroke="#172C51" stroke-width="1.33333" stroke-miterlimit="8" fill="#E1EFD8" fill-rule="evenodd"/><path d="M530.5 54.5 530.5 79.5 518.5 74.5 518.5 59.5Z" stroke="#172C51" stroke-width="1.33333" stroke-miterlimit="8" fill="#E1EFD8" fill-rule="evenodd"/><path d="M524.159 63C523.87 62.3064 524.024 61.9086 524.246 61.5346 524.488 61.1261 524.552 60.7195 524.552 60.7195 524.552 60.7195 524.742 61.0066 524.667 61.4544 525.003 61.0197 525.067 60.3305 525.016 60.0653 525.779 60.6802 526.104 62.013 525.665 63 528 61.4739 526.245 59.1914 525.941 58.9326 526.042 59.1914 526.061 59.6262 525.856 59.837 525.508 58.3128 524.648 58 524.648 58 524.749 58.7869 524.278 59.6456 523.825 60.2892 523.808 59.9759 523.791 59.7588 523.648 59.4586 523.616 60.0283 523.239 60.4936 523.137 61.063 523 61.8367 523.241 62.4021 524.159 63Z" fill="#E03F20" fill-rule="evenodd"/><path d="M506.159 63C505.87 62.3064 506.024 61.9086 506.246 61.5346 506.488 61.1261 506.552 60.7195 506.552 60.7195 506.552 60.7195 506.742 61.0066 506.667 61.4544 507.003 61.0197 507.067 60.3305 507.016 60.0653 507.779 60.6802 508.104 62.013 507.665 63 510 61.4739 508.245 59.1914 507.941 58.9326 508.042 59.1914 508.061 59.6262 507.856 59.837 507.508 58.3128 506.648 58 506.648 58 506.749 58.7869 506.278 59.6456 505.825 60.2892 505.808 59.9759 505.791 59.7588 505.648 59.4586 505.616 60.0283 505.239 60.4936 505.137 61.063 505 61.8367 505.241 62.4021 506.159 63Z" fill="#E03F20" fill-rule="evenodd"/><text font-family="Cambria Math,Cambria Math_MSFontService,sans-serif" font-weight="400" font-size="13" transform="translate(542.186 70)">LoRA Adapters</text><path d="M673.971 67.8006 673.619 66.6163 671.095 67.2192 668.967 66.1118 671.619 65.0644 671.619 63.9356 668.967 62.8882 671.095 61.7808 673.619 62.3837 673.971 61.1994 672.771 60.9129 674 60.2759 673.314 59.2113 672.086 59.8483 672.405 58.7752 671.086 58.4588 670.414 60.7205 668.286 61.8236 668.6 59.2498 667.514 58.6854 665.181 60.216 665.181 58.0099 667.029 56.3553 666.062 55.4874 665.181 56.2741 665.181 55 663.814 55 663.814 56.2741 662.938 55.4874 661.971 56.3553 663.814 58.0099 663.814 60.216 661.481 58.6854 660.4 59.2498 660.71 61.8193 658.586 60.7205 657.914 58.4588 656.59 58.7752 656.91 59.8483 655.686 59.2113 655 60.2716 656.229 60.9129 655.029 61.1994 655.381 62.3837 657.9 61.7808 660.033 62.8882 657.381 63.9356 657.381 65.0644 660.033 66.1118 657.9 67.2192 655.381 66.6163 655.029 67.8006 656.229 68.0871 655 68.7284 655.686 69.7887 656.91 69.1517 656.59 70.2248 657.914 70.5455 658.586 68.2795 660.71 67.1807 660.4 69.7545 661.481 70.3146 663.814 68.784 663.814 70.9901 661.971 72.6447 662.938 73.5126 663.814 72.7259 663.814 74 665.181 74 665.181 72.7259 666.062 73.5126 667.029 72.6447 665.181 70.9901 665.181 68.784 667.514 70.3146 668.6 69.7545 668.286 67.1807 670.414 68.2795 671.086 70.5455 672.405 70.2248 672.086 69.1517 673.314 69.7887 674 68.7284 672.771 68.0871 673.971 67.8006ZM669.643 64.5 667.5 65.3508 665.867 64.5 667.5 63.6535 669.643 64.5ZM667.071 60.4982 666.819 62.5846 665.181 63.4354 665.181 61.7423 667.071 60.4982ZM661.929 60.4982 663.814 61.7423 663.814 63.4354 662.181 62.5846 661.929 60.4982ZM659.352 64.5 661.5 63.6535 663.133 64.5 661.5 65.3508 659.352 64.5ZM661.929 68.5018 662.181 66.4154 663.814 65.5646 663.814 67.2577 661.929 68.5018ZM667.071 68.5018 665.181 67.2577 665.181 65.5646 666.819 66.4154 667.071 68.5018Z" fill="#0C6FBB" fill-rule="evenodd"/><text font-family="Cambria Math,Cambria Math_MSFontService,sans-serif" font-weight="400" font-size="13" transform="translate(685.187 70)">Frozen</text><path d="M757.406 74C756.306 71.2257 756.891 69.6344 757.735 68.1385 758.655 66.5044 758.898 64.8782 758.898 64.8782 758.898 64.8782 759.619 66.0264 759.333 67.8177 760.611 66.0788 760.854 63.3219 760.662 62.2611 763.561 64.721 764.796 70.0521 763.125 74 772 67.8955 765.332 58.7658 764.175 57.7303 764.56 58.7658 764.631 60.5047 763.853 61.3479 762.532 55.2514 759.262 54 759.262 54 759.648 57.1475 757.856 60.5825 756.135 63.1567 756.071 61.9038 756.006 61.0351 755.463 59.8345 755.342 62.1134 753.908 63.9746 753.522 66.2519 753 69.347 753.914 71.6084 757.406 74Z" fill="#E03F20" fill-rule="evenodd"/><text font-family="Cambria Math,Cambria Math_MSFontService,sans-serif" font-weight="400" font-size="13" transform="translate(779.688 70)">Trainable</text></g></svg>